<?xml version="1.0" encoding="utf-8"?>
<!-- Generator: Adobe Illustrator 27.5.0, SVG Export Plug-In . SVG Version: 6.00 Build 0)  -->
<svg version="1.1" xmlns="http://www.w3.org/2000/svg" xmlns:xlink="http://www.w3.org/1999/xlink" x="0px" y="0px"
	 viewBox="0 0 1100 800" style="enable-background:new 0 0 1100 800;" xml:space="preserve">
<g id="Background">
	<rect y="0" style="fill:#FFFFFF;" width="1100" height="800"/>
</g>
<g id="Shadow">
	<g>
		<path style="fill:#F1F2F2;" d="M512.112,624.459c-29.817,0.083-59.634,0.753-89.398,3.849c-11.223,1.167-22.21,3.735-33.458,4.77
			c-22.468,2.069-44.533,5.927-67.081,7.707c-18.157,1.433-36.39,2.279-54.494,4.098c-16.974,1.705-35.765,1.312-52.608-1.505
			c-12.469-2.085-24.995-3.259-37.255-6.609c-13.714-3.747-28.613-6.426-42.903-6.33c-20.376,0.137-40.219,0.154-59.719,6.77
			c-6.845,2.323-15.225,6.14-20.423,11.014c-11.899,11.158-13.51,38.998-1.629,50.57c20.011,19.477,62.722,27.119,90.772,27.479
			c30.737,0.395,60.597-1.738,91.38-2.993c28.603-1.166,57.135-2.824,85.786-2.766c58.516,0.119,117.04,0,175.451-3.655
			c54.878-3.434,109.894-2.255,164.893-2.255c56.399,0,112.416,0.415,168.407,7.424c24.396,3.054,49.251,4.123,73.769,6.263
			c21.959,1.916,43.06-0.038,64.932-1.809c18.365-1.487,36.61-5.898,53.294-13.354c13.207-5.902,36.752-24.238,40.802-38.325
			c11.354-39.495-160.018-38.546-186.33-38.457c-29.435,0.099-59.104,1.005-88.516-0.044c-12.372-0.442-24.562-2.703-36.637-5.18
			c-12.027-2.468-24.145-1.841-36.342-2.878c-50.863-4.326-101.839-3.693-152.864-3.693
			C545.337,624.549,528.724,624.413,512.112,624.459z"/>
	</g>
</g>
<g id="Object">
	<g>
		<g>
			<g>
				<g>
					<polygon style="fill:#3B455A;" points="111.66,672.657 110.583,681.585 127.363,692.668 137.368,684.817 129.517,674.811 
						112.737,663.728 					"/>
				</g>
				<g>
					<polygon style="fill:#424CAD;" points="120.89,400.324 117.618,427.441 137.591,549.066 114.331,670.06 130.632,675.62 
						187.273,532.134 191.261,488.097 186.29,396.703 					"/>
				</g>
			</g>
			<g>
				<g>
					<polygon style="fill:#424CAD;" points="237.266,408.916 238.594,523.706 216.963,671.711 200.33,671.711 189.825,535.145 
						167.064,398.579 					"/>
				</g>
				<g>
					<polygon style="fill:#3B455A;" points="200.426,669.732 200.426,678.725 218.412,687.718 227.406,678.725 218.412,669.732 
											"/>
				</g>
			</g>
			<g>
				<path style="fill:#EBB044;" d="M113.902,430.873c-0.229,10.473,0.1,24.587,4.123,25.104c0.754,0.097,1.477-0.276,2.136-0.636
					c6.957-3.799,11.88-9.145,18.738-12.815c7.188-3.846,15.411-5.891,23.475-7.321c12.059-2.203,24.384-3.57,36.67-3.784
					c13.34-0.233,39.31,2.391,39.31,2.391c7.498-1.26,14.662-3.843,21.845-6.238c12.34-4.115,24.943-7.741,36.522-13.506
					c3.716-1.85,13.966-7.316,10.303-12.263c-2.774-3.746-12.195-6.254-16.441-8.555c-9.484-5.141-18.601-11.009-26.628-18.056
					c-11.409-10.016-19.828-22.302-25.097-36.141c-2.66-6.985-4.578-14.204-6.162-21.47c-0.858-3.935-1.611-7.891-2.317-11.853
					c-0.401-2.25-0.396-10.762-2.041-12.175c-16.678-14.328-21.584-26.883-41.777-23.757c-46.076,7.133-42.81,9.177-53.09,31.755
					c-4.134,9.079-9.737,33.456-11.318,43.215c-1.915,11.82-3.686,23.664-5.064,35.552c-1.538,13.266-2.595,26.592-2.818,39.94
					C114.246,421.742,114.011,425.897,113.902,430.873z"/>
			</g>
			<g>
				<g>
					<g>
						<g>
							<g>
								<path style="fill:#EFBFA5;" d="M171.208,277.244c0.169,0.397,0.406,0.783,0.733,1.156c1.292,1.472,3.163,2.389,5.056,2.801
									c2.495,0.543,5.088,0.309,7.624,0.012c3.426-0.401,3.45-2.388,4.161-5.421c0.776-3.307,1.166-6.69,1.571-10.057
									c4.906-0.402,10.731-1.475,12.856-6.487c0.669-1.579,0.85-3.346,1.021-5.076c0.708-7.15,1.416-14.3,2.123-21.449
									c0.245-2.473,0.484-5.022-0.135-7.395c-1.087-4.163-4.566-6.904-8.056-8.749c-8.906-4.707-19.713-5.544-28.763-0.844
									c-2.409,1.251-4.728,2.931-6.272,5.36c-2.381,3.745-2.572,8.62-2.674,13.184c-0.094,4.213-0.189,8.425-0.283,12.638
									c-0.109,4.845,0.091,10.452,3.519,13.331c1.82,1.529,4.31,2.007,5.825,3.908c1.898,2.381,1.523,5.722,1.405,8.559
									C170.85,274.337,170.619,275.86,171.208,277.244z"/>
							</g>
						</g>
						<g>
							<path style="fill:#333E51;" d="M198.702,224.274c0.199,0.41,0.36,0.832,0.477,1.268c0.61,2.281-0.092,4.756,0.5,7.042
								c0.938,3.624,4.913,6.049,5.27,9.775c0.291,3.048-1.972,5.762-2.366,8.798c-0.43,3.317,1.475,6.623,0.907,9.887
								c-0.493,2.835-2.595,6.718-4.465,8.883c0.579-0.671,5.342-0.073,6.637-0.741c1.984-1.023,2.253-1.739,2.962-3.678
								c0.703-1.925,0.408-3.894,1.428-5.845c1.251-2.393,3.588-4.048,4.55-6.627c1.313-3.52-0.326-7.451,0.093-11.184
								c0.635-5.65,5.918-10.635,4.529-16.149c-0.815-3.235-3.737-5.475-5.257-8.445c-1.154-2.255-1.454-4.836-2.192-7.258
								c-0.739-2.423-2.131-4.894-4.502-5.784c-1.318-0.494-2.777-0.436-4.139-0.792c-2.353-0.616-4.216-2.405-6.459-3.348
								c-3.207-1.35-9.247,1.557-11.367,4.204c-2.104,2.628-1.313,5.049,0.458,7.635
								C188.714,216.219,196.359,219.45,198.702,224.274z"/>
						</g>
					</g>
					<g>
						<path style="fill:#333E51;" d="M152.988,204.559c-2.075,1.304-4.582,2.172-6.504,3.731c-3.745,3.04-4.792,8.259-5.266,13.059
							c-0.422,4.274-2.57,7.945-2.428,12.441c0.095,3.02,1.151,6.144,3.462,8.089c2.879,2.423,7.622,3.129,8.725,6.727
							c1.198,3.908-3.086,8.412-0.934,11.887c1.188,1.917,3.753,2.371,5.552,3.731c2.007,1.518,2.912,4.035,4.043,6.283
							c1.13,2.248,2.905,4.546,5.41,4.781c0.377-3.809,0.708-6.824-0.67-10.432c-0.803-2.101-3.328-6.054-1.022-8.1
							c1.487-1.732,4.726-2.096,4.973-4.366c0.116-1.066-0.564-2.029-1.088-2.964c-2.027-3.619-1.927-8.239-0.106-11.967
							c1.821-3.727,5.222-6.564,9.076-8.099c4.517-1.799,3.891-2.915,5.46-7.002c1.445-3.761,3.692-4.505,7.255-5.657
							c3.199-1.034,4.254-1.746,5.611-4.572c0.993-2.068,2.21-4.543,1.165-7.006c-0.831-1.958-2.476-3.434-4.07-4.842
							c-3.33-2.941-7.086-6.052-11.529-6.052c-2.467,0-4.86,0.986-7.327,0.949c-1.646-0.025-3.249-0.506-4.886-0.679
							c-2.79-0.295-5.802,0.342-8.187,1.844c-2.406,1.515-2.468,3.278-3.909,5.57C155.088,203.036,154.1,203.86,152.988,204.559z"/>
					</g>
					<g>
						<path style="fill:#333E51;" d="M164.017,189.584c0.622-2.628,0.596-6.112-1.878-7.193c-1.356-0.592-2.954-0.166-4.378-0.564
							c-3.036-0.849-3.816-4.656-5.238-7.471c-0.213-0.421-0.471-0.851-0.887-1.074c-0.595-0.318-1.318-0.126-1.992-0.092
							c-3.093,0.153-5.206-3.042-8.014-4.347c-3.477-1.616-8.135,0.294-9.477,3.886c-0.551,1.476-0.591,3.101-1.116,4.587
							c-2.126,6.018-11.305,7.981-11.991,14.326c-0.464,4.288,3.446,8.71,1.523,12.57c-1.229,2.469-4.628,3.967-4.45,6.719
							c0.114,1.77,1.895,3.099,3.666,3.202c1.771,0.103,3.467-0.751,4.884-1.818c2.249-1.695,4.014-3.951,6.171-5.762
							c2.157-1.811,4.959-3.204,7.721-2.655c2.675,0.532,4.967,2.81,7.682,2.554c2.172-0.205,3.903-2.004,6.05-2.392
							c2.009-0.363,4.003,0.56,6.027,0.829c2.023,0.269,4.596-0.608,4.797-2.64c0.049-0.492-0.053-1.011,0.136-1.469
							c0.528-1.281,2.764-1.044,3.285-2.328c-0.943-1.712-2.481-1.234-3.087-3.425C162.981,193.331,163.626,191.234,164.017,189.584
							z"/>
					</g>
				</g>
			</g>
		</g>
		<g>
			<g>
				<polygon style="fill:#C4C6C6;" points="601.805,647.956 483.897,646.649 495.55,556.53 592.152,557.601 				"/>
			</g>
			<g style="opacity:0.14;">
				<polygon points="492.193,581.471 594.238,577.125 597.073,603.661 				"/>
			</g>
			<g>
				<path style="fill:#CDD1D1;" d="M232.808,136.636v437.569c0,4.012,3.253,7.265,7.265,7.265h606.557
					c4.012,0,7.265-3.253,7.265-7.265V136.636c0-4.013-3.253-7.265-7.265-7.265H240.073
					C236.06,129.371,232.808,132.624,232.808,136.636z"/>
			</g>
			<g>
				<path style="fill:#3B455A;" d="M232.808,138.241V525.55h621.087V138.241c0-5.277-4.278-9.556-9.556-9.556H242.363
					C237.086,128.686,232.808,132.964,232.808,138.241z"/>
			</g>
			<g>
				<rect x="249.181" y="146.824" style="fill:#CCD2D9;" width="588.34" height="357.612"/>
			</g>
			<g>
				<rect x="450.171" y="635.545" style="fill:#CDD1D1;" width="186.361" height="32.506"/>
			</g>
		</g>
		<g>
			<g>
				<g>
					<g>
						<path style="fill:#B97262;" d="M1001.214,635.688c-2.123,2.495-4.245,4.991-6.368,7.486
							c-8.143-6.282-15.888-13.494-23.006-21.424c4.262-2.068,7.233-8.035,12.772-3.429
							C986.404,619.811,1000.794,636.181,1001.214,635.688z"/>
					</g>
					<g>
						<path style="fill:#3B455A;" d="M989.857,640.113c-1.029,1.302-1.521,3.13-1.347,5.006c0.101,1.089,0.416,2.203,0.322,3.26
							c-0.092,1.038-0.568,1.917-1.034,2.765c-2.456,4.466-11.028,16.157,0.907,16.382c10.839,0.204,17.782-17.762,21.466-26.671
							c0.242-0.586,0.484-1.214,0.391-1.902c-0.1-0.736-0.563-1.401-1.016-2.01c-2.523-3.39-6.304-8.617-9.892-5.056
							c-1.531,1.519-2.016,4.109-3.749,5.627C994.485,638.757,990.782,638.942,989.857,640.113z"/>
					</g>
				</g>
				<g>
					<path style="fill:#3B455A;" d="M966.548,438.589c2.072,14.105-0.527,27.914-1.919,41.736
						c-1.563,15.525-0.034,28.73,3.055,44.16c3.38,16.88,7.073,33.723,11.798,50.289c4.923,17.26,12.199,30.974,20.482,46.649
						c0.703,1.33,1.429,2.757,1.375,4.256c-0.192,5.36-23.502,20.129-25.013,17.049c-12.825-26.167-33.407-52.448-44.469-79.492
						c-19.258-47.078-35.801-95.37-49.478-144.476c-1.953-7.01-3.745-15.046-0.269-20.996c2.666-4.563,7.732-6.569,12.526-8.076
						c12.828-4.034,35.978-12.838,48.82-4.286C957.494,394.749,964.226,422.786,966.548,438.589z"/>
				</g>
			</g>
			<g>
				<g>
					<g>
						<path style="fill:#B97262;" d="M896.652,664.995c-3.144-0.063-6.288-0.126-9.432-0.189
							c-1.134-10.727-1.359-21.747-0.668-32.736c4.285,2.072,10.391,0.524,10.932,8.04
							C897.659,642.543,896.031,664.983,896.652,664.995z"/>
					</g>
					<g>
						<path style="fill:#3B455A;" d="M885.982,658.756c-1.588,0.031-3.178,0.843-4.354,2.223c-0.683,0.802-1.239,1.792-2.031,2.416
							c-0.777,0.612-1.702,0.81-2.6,0.994c-4.725,0.971-18.536,1.785-10.682,11.566c7.132,8.883,24.173,2.605,32.785-0.314
							c0.566-0.192,1.161-0.412,1.573-0.943c0.44-0.567,0.588-1.381,0.704-2.15c0.643-4.278,1.71-10.787-3.152-11.328
							c-2.074-0.231-4.185,1.091-6.393,0.696C890.022,661.594,887.41,658.728,885.982,658.756z"/>
					</g>
				</g>
				<g>
					<path style="fill:#3B455A;" d="M944.406,456.929c-3.811,20.586-16.209,36.482-21.973,56.505
						c-11.142,38.707-13.497,83.061-18.924,123.225c-0.416,3.081-0.368,14.134-0.368,14.134s-14.773,2.968-23.699,1.157
						c-9.78-80.018-12.303-161.258-7.515-242.045c0.434-7.325,1.35-15.573,6.529-20.073c3.972-3.452,9.367-3.666,14.348-3.497
						c13.325,0.452,37.865-0.184,47.138,12.25C950.079,412.176,947.334,441.112,944.406,456.929z"/>
				</g>
			</g>
		</g>
		<g>
			<rect x="632.693" y="168.262" style="fill:#FFFFFF;" width="167.724" height="325.327"/>
		</g>
		<g>
			<rect x="270.989" y="161.066" style="fill:#FFFFFF;" width="328.715" height="328.715"/>
		</g>
		<g>
			<ellipse style="fill:#DBDDDD;" cx="718.558" cy="220.478" rx="38.387" ry="36.812"/>
		</g>
		<g>
			<g style="opacity:0.22;">
				<g>
					<rect x="658.876" y="283.029" style="fill:#59595B;" width="125.024" height="12.429"/>
				</g>
				<g>
					<rect x="658.876" y="317.092" style="fill:#59595B;" width="125.024" height="12.429"/>
				</g>
			</g>
			<g style="opacity:0.22;">
				<g>
					<rect x="658.876" y="348.274" style="fill:#59595B;" width="125.024" height="12.429"/>
				</g>
				<g>
					<rect x="658.876" y="382.337" style="fill:#59595B;" width="125.024" height="12.429"/>
				</g>
			</g>
			<g style="opacity:0.22;">
				<g>
					<rect x="658.876" y="452.184" style="fill:#59595B;" width="125.024" height="12.429"/>
				</g>
			</g>
		</g>
		<g>
			<g style="opacity:0.22;">
				<g>
					<rect x="296.08" y="289.763" style="fill:#59595B;" width="278.535" height="11.004"/>
				</g>
				<g>
					<rect x="296.08" y="319.921" style="fill:#59595B;" width="278.535" height="11.004"/>
				</g>
			</g>
			<g style="opacity:0.22;">
				<g>
					<rect x="296.08" y="347.529" style="fill:#59595B;" width="278.535" height="11.004"/>
				</g>
				<g>
					<rect x="296.08" y="377.688" style="fill:#59595B;" width="168.745" height="11.004"/>
				</g>
			</g>
			<g style="opacity:0.22;">
				<g>
					<rect x="296.08" y="409.371" style="fill:#59595B;" width="168.745" height="11.004"/>
				</g>
				<g>
					<rect x="296.08" y="439.529" style="fill:#59595B;" width="168.745" height="11.004"/>
				</g>
			</g>
		</g>
		<g style="opacity:0.19;">
			<rect x="296.388" y="174.751" style="fill:#59595B;" width="345.082" height="134.502"/>
		</g>
		<g>
			<rect x="284.622" y="165.561" style="fill:#7FC5A3;" width="381.378" height="134.502"/>
		</g>
		<g>
			<g>
				<g>
					<g>
						<path style="fill:#B97262;" d="M890.162,282.015c4.955-0.64,9.91-1.28,14.865-1.92c-0.07-3.984-0.459-7.962-1.161-11.884
							c4.099-1.579,8.821-3.905,9.414-8.258c0.187-1.371-0.09-2.758-0.366-4.114c-1.141-5.605-2.281-11.21-3.422-16.814
							c-0.394-1.939-0.812-3.934-1.921-5.572c-1.946-2.874-5.593-4.049-9.029-4.541c-8.769-1.256-18.219,0.916-24.814,6.831
							c-1.755,1.574-3.329,3.45-4.057,5.693c-1.122,3.458-0.095,7.204,0.932,10.691c0.948,3.219,1.896,6.437,2.844,9.656
							c1.09,3.702,2.631,7.901,6.267,9.194c1.931,0.686,4.178,0.402,5.938,1.45C888.756,274.273,888.48,278.817,890.162,282.015z"/>
					</g>
					<g>
						<path style="fill:#333E51;" d="M838.144,227.324c-0.898-1.382-1.862-2.712-2.933-3.954c-2.319-2.692-5.146-4.974-7.036-7.982
							c-1.891-3.008-2.647-7.139-0.571-10.022c1.34-1.861,3.575-2.837,5.754-3.549c7.181-2.347,14.995-2.723,22.369-1.078
							c7.023,1.568,13.349,4.321,20.288,1.492c6.52-2.658,11.312-1.796,18.275,0.458c7.536,2.439,17.564,2.77,24.426,6.326
							c2.865,1.485,5.187,3.869,7.02,6.525c6.352,9.201,6.769,22.134,1.024,31.725c-1.289,2.152-2.849,4.13-4.494,6.023
							c-3.405,3.92-7.473,8.757-12.27,10.314c-0.244-4.326,3.295-18.093-0.135-21.543c-5.443-5.474-17.314-3.156-23.818-1.575
							c-7.095,1.724-13.308,6.969-20.354,8.259c-5.07,0.928-11.645-1.377-16.054-3.881
							C844.193,241.77,841.424,232.367,838.144,227.324z"/>
					</g>
				</g>
			</g>
			<g>
				<path style="fill:#8EC3CB;" d="M921.62,276.028c9.99,5.293,17.727,14.898,22.849,25.011
					c20.502,40.477,30.486,85.325,40.12,129.664c3.126,14.387,6.828,29.818,17.928,39.491c-9.828,1.827-20.147,3.189-29.675,0.165
					c-6.227-1.976-11.722-5.71-17.612-8.534c-14.754-7.073-31.776-8.273-48.01-6.237c-16.234,2.036-31.904,7.138-47.458,12.214
					c-1.544-12.037-1.958-22.678-1.285-34.756c1.9-34.164,15.573-66.663,15.665-101.036c0.033-12.117-1.644-24.422,1.04-36.238
					c3.352-14.756,15.825-24.48,30.964-23.95C911.773,272.018,916.944,273.55,921.62,276.028z"/>
			</g>
		</g>
		<g>
			<rect x="478.076" y="370.508" style="fill:#EBB044;" width="96.538" height="80.799"/>
		</g>
		<g>
			<g>
				<path style="fill:#EFBFA5;" d="M290.131,272.622c-0.252-0.108-0.51-0.197-0.776-0.259c-2.479-0.575-3.999,1.482-6.223,1.629
					c-0.992,0.065-3.468-1.821-3.896-0.142c-0.153,0.621-0.84,2.658-1.407,4.752c-1.036,1.417-2.012,2.89-3.174,4.19
					c-2.94,3.292-12.947,6.376-10.803,12.432c0.415,1.171,0.844,2.37,1.61,3.333c0.626,0.787,1.443,1.372,2.269,1.905
					c0.644,0.416,1.579,1.234,2.272,1.063c0.728-0.18,1.836-1.774,2.397-2.317c1.605-1.55,3.21-3.101,4.815-4.651
					c1.574-1.521,3.568-3.149,5.672-2.465c0.46,0.15,0.895,0.407,1.367,0.489c0.533,0.093,1.066-0.044,1.576-0.197
					c1.869-0.558,3.737-1.292,5.42-2.308c3.007-1.817,3.239-7.682,3.593-10.945c0.088-0.812,0.154-1.658-0.1-2.446
					c-0.412-1.282-1.56-2.128-2.633-2.875C291.476,273.37,290.827,272.921,290.131,272.622z"/>
			</g>
			<g>
				<path style="fill:#E2A644;" d="M231.432,329.16c2.786,0.136,5.612,0.269,8.299-0.384c2.143-0.521,4.133-1.526,6.077-2.577
					c12.054-6.519,23.061-15.1,32.495-25.332c-3.156-6.174-7.444-11.726-12.536-16.233c-9.427,6.214-19.353,11.604-29.653,16.101
					c-2.107,0.92-4.258,1.81-6.544,2.088c-3.293,0.4-6.645-0.493-9.909-1.378c-12.656-3.434-25.312-6.868-37.969-10.302
					c-7.636-2.072-15.561-4.158-23.169-2.678c-21.096,4.104-18.134,33.194,1.812,37.444
					C182.73,330.682,208.704,328.049,231.432,329.16z"/>
			</g>
		</g>
		<g style="opacity:0.2;">
			<g>
				<defs>
					<polygon id="SVGID_1_" points="622.846,241.893 707.473,467.616 747.531,416.054 810.487,480.264 833.978,457.231 
						857.47,434.199 794.514,369.989 846.856,330.956 					"/>
				</defs>
				<clipPath id="SVGID_00000077320056643582620600000017510997865025320891_">
					<use xlink:href="#SVGID_1_"  style="overflow:visible;"/>
				</clipPath>
				<polygon style="clip-path:url(#SVGID_00000077320056643582620600000017510997865025320891_);fill:#FFFFFF;" points="
					622.846,439.004 630.326,480.264 622.846,480.264 				"/>
				<polygon style="clip-path:url(#SVGID_00000077320056643582620600000017510997865025320891_);fill:#FFFFFF;" points="
					622.846,434.508 631.141,480.264 630.326,480.264 622.846,439.004 				"/>
				<polygon style="clip-path:url(#SVGID_00000077320056643582620600000017510997865025320891_);fill:#FEFEFE;" points="
					622.846,430.011 631.956,480.264 631.141,480.264 622.846,434.508 				"/>
				<polygon style="clip-path:url(#SVGID_00000077320056643582620600000017510997865025320891_);fill:#FDFDFD;" points="
					622.846,425.515 632.771,480.264 631.956,480.264 622.846,430.011 				"/>
				<polygon style="clip-path:url(#SVGID_00000077320056643582620600000017510997865025320891_);fill:#FCFCFC;" points="
					622.846,421.018 633.586,480.264 632.771,480.264 622.846,425.515 				"/>
				<polygon style="clip-path:url(#SVGID_00000077320056643582620600000017510997865025320891_);fill:#FBFBFB;" points="
					622.846,416.522 634.401,480.264 633.586,480.264 622.846,421.018 				"/>
				<polygon style="clip-path:url(#SVGID_00000077320056643582620600000017510997865025320891_);fill:#FBFBFB;" points="
					622.846,412.025 635.216,480.264 634.401,480.264 622.846,416.522 				"/>
				<polygon style="clip-path:url(#SVGID_00000077320056643582620600000017510997865025320891_);fill:#FAFAFA;" points="
					622.846,407.529 636.032,480.264 635.216,480.264 622.846,412.025 				"/>
				<polygon style="clip-path:url(#SVGID_00000077320056643582620600000017510997865025320891_);fill:#F9F9F9;" points="
					622.846,403.032 636.847,480.264 636.032,480.264 622.846,407.529 				"/>
				<polygon style="clip-path:url(#SVGID_00000077320056643582620600000017510997865025320891_);fill:#F8F8F8;" points="
					622.846,398.536 637.662,480.264 636.847,480.264 622.846,403.032 				"/>
				<polygon style="clip-path:url(#SVGID_00000077320056643582620600000017510997865025320891_);fill:#F7F7F7;" points="
					622.846,394.039 638.477,480.264 637.662,480.264 622.846,398.536 				"/>
				<polygon style="clip-path:url(#SVGID_00000077320056643582620600000017510997865025320891_);fill:#F6F6F6;" points="
					622.846,389.543 639.292,480.264 638.477,480.264 622.846,394.039 				"/>
				<polygon style="clip-path:url(#SVGID_00000077320056643582620600000017510997865025320891_);fill:#F5F5F5;" points="
					622.846,385.046 640.107,480.264 639.292,480.264 622.846,389.543 				"/>
				<polygon style="clip-path:url(#SVGID_00000077320056643582620600000017510997865025320891_);fill:#F4F4F4;" points="
					622.846,380.549 640.923,480.264 640.107,480.264 622.846,385.046 				"/>
				<polygon style="clip-path:url(#SVGID_00000077320056643582620600000017510997865025320891_);fill:#F3F3F3;" points="
					622.846,376.053 641.738,480.264 640.923,480.264 622.846,380.549 				"/>
				<polygon style="clip-path:url(#SVGID_00000077320056643582620600000017510997865025320891_);fill:#F2F2F2;" points="
					622.846,371.556 642.553,480.264 641.738,480.264 622.846,376.053 				"/>
				<polygon style="clip-path:url(#SVGID_00000077320056643582620600000017510997865025320891_);fill:#F1F1F1;" points="
					622.846,367.06 643.368,480.264 642.553,480.264 622.846,371.556 				"/>
				<polygon style="clip-path:url(#SVGID_00000077320056643582620600000017510997865025320891_);fill:#F0F0F0;" points="
					622.846,362.563 644.183,480.264 643.368,480.264 622.846,367.06 				"/>
				<polygon style="clip-path:url(#SVGID_00000077320056643582620600000017510997865025320891_);fill:#EFEFEF;" points="
					622.846,358.067 644.998,480.264 644.183,480.264 622.846,362.563 				"/>
				<polygon style="clip-path:url(#SVGID_00000077320056643582620600000017510997865025320891_);fill:#EEEEEE;" points="
					622.846,353.57 645.813,480.264 644.998,480.264 622.846,358.067 				"/>
				<polygon style="clip-path:url(#SVGID_00000077320056643582620600000017510997865025320891_);fill:#EDEDED;" points="
					622.846,349.074 646.629,480.264 645.813,480.264 622.846,353.57 				"/>
				<polygon style="clip-path:url(#SVGID_00000077320056643582620600000017510997865025320891_);fill:#ECECEC;" points="
					622.846,344.577 647.444,480.264 646.629,480.264 622.846,349.074 				"/>
				<polygon style="clip-path:url(#SVGID_00000077320056643582620600000017510997865025320891_);fill:#EBEBEB;" points="
					622.846,340.081 648.259,480.264 647.444,480.264 622.846,344.577 				"/>
				<polygon style="clip-path:url(#SVGID_00000077320056643582620600000017510997865025320891_);fill:#EBEBEB;" points="
					622.846,335.584 649.074,480.264 648.259,480.264 622.846,340.081 				"/>
				<polygon style="clip-path:url(#SVGID_00000077320056643582620600000017510997865025320891_);fill:#EAEAEA;" points="
					622.846,331.088 649.889,480.264 649.074,480.264 622.846,335.584 				"/>
				<polygon style="clip-path:url(#SVGID_00000077320056643582620600000017510997865025320891_);fill:#E9E9E9;" points="
					622.846,326.591 650.704,480.264 649.889,480.264 622.846,331.088 				"/>
				<polygon style="clip-path:url(#SVGID_00000077320056643582620600000017510997865025320891_);fill:#E8E8E8;" points="
					622.846,322.095 651.52,480.264 650.704,480.264 622.846,326.591 				"/>
				<polygon style="clip-path:url(#SVGID_00000077320056643582620600000017510997865025320891_);fill:#E7E7E7;" points="
					622.846,317.598 652.335,480.264 651.52,480.264 622.846,322.095 				"/>
				<polygon style="clip-path:url(#SVGID_00000077320056643582620600000017510997865025320891_);fill:#E6E6E6;" points="
					622.846,313.102 653.15,480.264 652.335,480.264 622.846,317.598 				"/>
				<polygon style="clip-path:url(#SVGID_00000077320056643582620600000017510997865025320891_);fill:#E5E5E5;" points="
					622.846,308.605 653.965,480.264 653.15,480.264 622.846,313.102 				"/>
				<polygon style="clip-path:url(#SVGID_00000077320056643582620600000017510997865025320891_);fill:#E4E4E4;" points="
					622.846,304.108 654.78,480.264 653.965,480.264 622.846,308.605 				"/>
				<polygon style="clip-path:url(#SVGID_00000077320056643582620600000017510997865025320891_);fill:#E3E3E3;" points="
					622.846,299.612 655.595,480.264 654.78,480.264 622.846,304.108 				"/>
				<polygon style="clip-path:url(#SVGID_00000077320056643582620600000017510997865025320891_);fill:#E2E2E2;" points="
					622.846,295.115 656.411,480.264 655.595,480.264 622.846,299.612 				"/>
				<polygon style="clip-path:url(#SVGID_00000077320056643582620600000017510997865025320891_);fill:#E1E1E1;" points="
					622.846,290.619 657.226,480.264 656.411,480.264 622.846,295.115 				"/>
				<polygon style="clip-path:url(#SVGID_00000077320056643582620600000017510997865025320891_);fill:#E0E0E0;" points="
					622.846,286.122 658.041,480.264 657.226,480.264 622.846,290.619 				"/>
				<polygon style="clip-path:url(#SVGID_00000077320056643582620600000017510997865025320891_);fill:#DFDFDF;" points="
					622.846,281.626 658.856,480.264 658.041,480.264 622.846,286.122 				"/>
				<polygon style="clip-path:url(#SVGID_00000077320056643582620600000017510997865025320891_);fill:#DEDEDE;" points="
					622.846,277.129 659.671,480.264 658.856,480.264 622.846,281.626 				"/>
				<polygon style="clip-path:url(#SVGID_00000077320056643582620600000017510997865025320891_);fill:#DDDDDD;" points="
					622.846,272.633 660.486,480.264 659.671,480.264 622.846,277.129 				"/>
				<polygon style="clip-path:url(#SVGID_00000077320056643582620600000017510997865025320891_);fill:#DCDCDC;" points="
					622.846,268.136 661.301,480.264 660.486,480.264 622.846,272.633 				"/>
				<polygon style="clip-path:url(#SVGID_00000077320056643582620600000017510997865025320891_);fill:#DBDBDB;" points="
					622.846,263.64 662.117,480.264 661.301,480.264 622.846,268.136 				"/>
				<polygon style="clip-path:url(#SVGID_00000077320056643582620600000017510997865025320891_);fill:#DADADA;" points="
					622.846,259.143 662.932,480.264 662.117,480.264 622.846,263.64 				"/>
				<polygon style="clip-path:url(#SVGID_00000077320056643582620600000017510997865025320891_);fill:#D9D9D9;" points="
					622.846,254.647 663.747,480.264 662.932,480.264 622.846,259.143 				"/>
				<polygon style="clip-path:url(#SVGID_00000077320056643582620600000017510997865025320891_);fill:#D8D8D8;" points="
					622.846,250.15 664.562,480.264 663.747,480.264 622.846,254.647 				"/>
				<polygon style="clip-path:url(#SVGID_00000077320056643582620600000017510997865025320891_);fill:#D7D7D7;" points="
					622.846,245.654 665.377,480.264 664.562,480.264 622.846,250.15 				"/>
				<polygon style="clip-path:url(#SVGID_00000077320056643582620600000017510997865025320891_);fill:#D6D6D6;" points="
					622.979,241.893 666.192,480.264 665.377,480.264 622.846,245.654 622.846,241.893 				"/>
				<polygon style="clip-path:url(#SVGID_00000077320056643582620600000017510997865025320891_);fill:#D5D5D5;" points="
					623.794,241.893 667.008,480.264 666.192,480.264 622.979,241.893 				"/>
				<polygon style="clip-path:url(#SVGID_00000077320056643582620600000017510997865025320891_);fill:#D4D4D4;" points="
					624.61,241.893 667.823,480.264 667.008,480.264 623.794,241.893 				"/>
				<polygon style="clip-path:url(#SVGID_00000077320056643582620600000017510997865025320891_);fill:#D3D3D3;" points="
					625.425,241.893 668.638,480.264 667.823,480.264 624.61,241.893 				"/>
				<polygon style="clip-path:url(#SVGID_00000077320056643582620600000017510997865025320891_);fill:#D2D2D2;" points="
					626.24,241.893 669.453,480.264 668.638,480.264 625.425,241.893 				"/>
				<polygon style="clip-path:url(#SVGID_00000077320056643582620600000017510997865025320891_);fill:#D1D1D1;" points="
					627.055,241.893 670.268,480.264 669.453,480.264 626.24,241.893 				"/>
				<polygon style="clip-path:url(#SVGID_00000077320056643582620600000017510997865025320891_);fill:#D0D0D0;" points="
					627.87,241.893 671.083,480.264 670.268,480.264 627.055,241.893 				"/>
				<polygon style="clip-path:url(#SVGID_00000077320056643582620600000017510997865025320891_);fill:#CFCFCF;" points="
					628.685,241.893 671.898,480.264 671.083,480.264 627.87,241.893 				"/>
				<polygon style="clip-path:url(#SVGID_00000077320056643582620600000017510997865025320891_);fill:#CECECE;" points="
					629.501,241.893 672.714,480.264 671.898,480.264 628.685,241.893 				"/>
				<polygon style="clip-path:url(#SVGID_00000077320056643582620600000017510997865025320891_);fill:#CDCDCD;" points="
					630.316,241.893 673.529,480.264 672.714,480.264 629.501,241.893 				"/>
				<polygon style="clip-path:url(#SVGID_00000077320056643582620600000017510997865025320891_);fill:#CCCCCC;" points="
					631.131,241.893 674.344,480.264 673.529,480.264 630.316,241.893 				"/>
				<polygon style="clip-path:url(#SVGID_00000077320056643582620600000017510997865025320891_);fill:#CBCBCB;" points="
					631.946,241.893 675.159,480.264 674.344,480.264 631.131,241.893 				"/>
				<polygon style="clip-path:url(#SVGID_00000077320056643582620600000017510997865025320891_);fill:#CACACA;" points="
					632.761,241.893 675.974,480.264 675.159,480.264 631.946,241.893 				"/>
				<polygon style="clip-path:url(#SVGID_00000077320056643582620600000017510997865025320891_);fill:#C9C9C9;" points="
					633.576,241.893 676.789,480.264 675.974,480.264 632.761,241.893 				"/>
				<polygon style="clip-path:url(#SVGID_00000077320056643582620600000017510997865025320891_);fill:#C8C8C8;" points="
					634.392,241.893 677.604,480.264 676.789,480.264 633.576,241.893 				"/>
				<polygon style="clip-path:url(#SVGID_00000077320056643582620600000017510997865025320891_);fill:#C7C7C7;" points="
					635.207,241.893 678.42,480.264 677.604,480.264 634.392,241.893 				"/>
				<polygon style="clip-path:url(#SVGID_00000077320056643582620600000017510997865025320891_);fill:#C6C6C6;" points="
					636.022,241.893 679.235,480.264 678.42,480.264 635.207,241.893 				"/>
				<polygon style="clip-path:url(#SVGID_00000077320056643582620600000017510997865025320891_);fill:#C5C5C5;" points="
					636.837,241.893 680.05,480.264 679.235,480.264 636.022,241.893 				"/>
				<polygon style="clip-path:url(#SVGID_00000077320056643582620600000017510997865025320891_);fill:#C4C4C4;" points="
					637.652,241.893 680.865,480.264 680.05,480.264 636.837,241.893 				"/>
				<polygon style="clip-path:url(#SVGID_00000077320056643582620600000017510997865025320891_);fill:#C3C3C3;" points="
					638.467,241.893 681.68,480.264 680.865,480.264 637.652,241.893 				"/>
				<polygon style="clip-path:url(#SVGID_00000077320056643582620600000017510997865025320891_);fill:#C2C2C2;" points="
					639.282,241.893 682.495,480.264 681.68,480.264 638.467,241.893 				"/>
				<polygon style="clip-path:url(#SVGID_00000077320056643582620600000017510997865025320891_);fill:#C1C1C1;" points="
					640.098,241.893 683.311,480.264 682.495,480.264 639.282,241.893 				"/>
				<polygon style="clip-path:url(#SVGID_00000077320056643582620600000017510997865025320891_);fill:#C0C0C0;" points="
					640.913,241.893 684.126,480.264 683.311,480.264 640.098,241.893 				"/>
				<polygon style="clip-path:url(#SVGID_00000077320056643582620600000017510997865025320891_);fill:#BFBFBF;" points="
					641.728,241.893 684.941,480.264 684.126,480.264 640.913,241.893 				"/>
				<polygon style="clip-path:url(#SVGID_00000077320056643582620600000017510997865025320891_);fill:#BEBEBE;" points="
					642.543,241.893 685.756,480.264 684.941,480.264 641.728,241.893 				"/>
				<polygon style="clip-path:url(#SVGID_00000077320056643582620600000017510997865025320891_);fill:#BDBDBD;" points="
					643.358,241.893 686.571,480.264 685.756,480.264 642.543,241.893 				"/>
				<polygon style="clip-path:url(#SVGID_00000077320056643582620600000017510997865025320891_);fill:#BCBCBC;" points="
					644.173,241.893 687.386,480.264 686.571,480.264 643.358,241.893 				"/>
				<polygon style="clip-path:url(#SVGID_00000077320056643582620600000017510997865025320891_);fill:#BCBCBC;" points="
					644.989,241.893 688.201,480.264 687.386,480.264 644.173,241.893 				"/>
				<polygon style="clip-path:url(#SVGID_00000077320056643582620600000017510997865025320891_);fill:#BBBBBB;" points="
					645.804,241.893 689.017,480.264 688.201,480.264 644.989,241.893 				"/>
				<polygon style="clip-path:url(#SVGID_00000077320056643582620600000017510997865025320891_);fill:#BABABA;" points="
					646.619,241.893 689.832,480.264 689.017,480.264 645.804,241.893 				"/>
				<polygon style="clip-path:url(#SVGID_00000077320056643582620600000017510997865025320891_);fill:#B9B9B9;" points="
					647.434,241.893 690.647,480.264 689.832,480.264 646.619,241.893 				"/>
				<polygon style="clip-path:url(#SVGID_00000077320056643582620600000017510997865025320891_);fill:#B8B8B8;" points="
					648.249,241.893 691.462,480.264 690.647,480.264 647.434,241.893 				"/>
				<polygon style="clip-path:url(#SVGID_00000077320056643582620600000017510997865025320891_);fill:#B7B7B7;" points="
					649.064,241.893 692.277,480.264 691.462,480.264 648.249,241.893 				"/>
				<polygon style="clip-path:url(#SVGID_00000077320056643582620600000017510997865025320891_);fill:#B6B6B6;" points="
					649.88,241.893 693.092,480.264 692.277,480.264 649.064,241.893 				"/>
				<polygon style="clip-path:url(#SVGID_00000077320056643582620600000017510997865025320891_);fill:#B5B5B5;" points="
					650.695,241.893 693.908,480.264 693.092,480.264 649.88,241.893 				"/>
				<polygon style="clip-path:url(#SVGID_00000077320056643582620600000017510997865025320891_);fill:#B4B4B4;" points="
					651.51,241.893 694.723,480.264 693.908,480.264 650.695,241.893 				"/>
				<polygon style="clip-path:url(#SVGID_00000077320056643582620600000017510997865025320891_);fill:#B3B3B3;" points="
					652.325,241.893 695.538,480.264 694.723,480.264 651.51,241.893 				"/>
				<polygon style="clip-path:url(#SVGID_00000077320056643582620600000017510997865025320891_);fill:#B2B2B2;" points="
					653.14,241.893 696.353,480.264 695.538,480.264 652.325,241.893 				"/>
				<polygon style="clip-path:url(#SVGID_00000077320056643582620600000017510997865025320891_);fill:#B1B1B1;" points="
					653.955,241.893 697.168,480.264 696.353,480.264 653.14,241.893 				"/>
				<polygon style="clip-path:url(#SVGID_00000077320056643582620600000017510997865025320891_);fill:#B0B0B0;" points="
					654.77,241.893 697.983,480.264 697.168,480.264 653.955,241.893 				"/>
				<polygon style="clip-path:url(#SVGID_00000077320056643582620600000017510997865025320891_);fill:#AFAFAF;" points="
					655.586,241.893 698.799,480.264 697.983,480.264 654.77,241.893 				"/>
				<polygon style="clip-path:url(#SVGID_00000077320056643582620600000017510997865025320891_);fill:#AEAEAE;" points="
					656.401,241.893 699.614,480.264 698.799,480.264 655.586,241.893 				"/>
				<polygon style="clip-path:url(#SVGID_00000077320056643582620600000017510997865025320891_);fill:#ADADAD;" points="
					657.216,241.893 700.429,480.264 699.614,480.264 656.401,241.893 				"/>
				<polygon style="clip-path:url(#SVGID_00000077320056643582620600000017510997865025320891_);fill:#ACACAC;" points="
					658.031,241.893 701.244,480.264 700.429,480.264 657.216,241.893 				"/>
				<polygon style="clip-path:url(#SVGID_00000077320056643582620600000017510997865025320891_);fill:#ABABAB;" points="
					658.846,241.893 702.059,480.264 701.244,480.264 658.031,241.893 				"/>
				<polygon style="clip-path:url(#SVGID_00000077320056643582620600000017510997865025320891_);fill:#AAAAAA;" points="
					659.661,241.893 702.874,480.264 702.059,480.264 658.846,241.893 				"/>
				<polygon style="clip-path:url(#SVGID_00000077320056643582620600000017510997865025320891_);fill:#A9A9A9;" points="
					660.477,241.893 703.689,480.264 702.874,480.264 659.661,241.893 				"/>
				<polygon style="clip-path:url(#SVGID_00000077320056643582620600000017510997865025320891_);fill:#A8A8A8;" points="
					661.292,241.893 704.505,480.264 703.689,480.264 660.477,241.893 				"/>
				<polygon style="clip-path:url(#SVGID_00000077320056643582620600000017510997865025320891_);fill:#A7A7A7;" points="
					662.107,241.893 705.32,480.264 704.505,480.264 661.292,241.893 				"/>
				<polygon style="clip-path:url(#SVGID_00000077320056643582620600000017510997865025320891_);fill:#A6A6A6;" points="
					662.922,241.893 706.135,480.264 705.32,480.264 662.107,241.893 				"/>
				<polygon style="clip-path:url(#SVGID_00000077320056643582620600000017510997865025320891_);fill:#A5A5A5;" points="
					663.737,241.893 706.95,480.264 706.135,480.264 662.922,241.893 				"/>
				<polygon style="clip-path:url(#SVGID_00000077320056643582620600000017510997865025320891_);fill:#A4A4A4;" points="
					664.552,241.893 707.765,480.264 706.95,480.264 663.737,241.893 				"/>
				<polygon style="clip-path:url(#SVGID_00000077320056643582620600000017510997865025320891_);fill:#A3A3A3;" points="
					665.367,241.893 708.58,480.264 707.765,480.264 664.552,241.893 				"/>
				<polygon style="clip-path:url(#SVGID_00000077320056643582620600000017510997865025320891_);fill:#A2A2A2;" points="
					666.182,241.893 709.396,480.264 708.58,480.264 665.367,241.893 				"/>
				<polygon style="clip-path:url(#SVGID_00000077320056643582620600000017510997865025320891_);fill:#A1A1A1;" points="
					666.998,241.893 710.211,480.264 709.396,480.264 666.182,241.893 				"/>
				<polygon style="clip-path:url(#SVGID_00000077320056643582620600000017510997865025320891_);fill:#A0A0A0;" points="
					667.813,241.893 711.026,480.264 710.211,480.264 666.998,241.893 				"/>
				<polygon style="clip-path:url(#SVGID_00000077320056643582620600000017510997865025320891_);fill:#9E9E9E;" points="
					668.628,241.893 711.841,480.264 711.026,480.264 667.813,241.893 				"/>
				<polygon style="clip-path:url(#SVGID_00000077320056643582620600000017510997865025320891_);fill:#9D9D9D;" points="
					669.443,241.893 712.656,480.264 711.841,480.264 668.628,241.893 				"/>
				<polygon style="clip-path:url(#SVGID_00000077320056643582620600000017510997865025320891_);fill:#9C9C9C;" points="
					670.258,241.893 713.471,480.264 712.656,480.264 669.443,241.893 				"/>
				<polygon style="clip-path:url(#SVGID_00000077320056643582620600000017510997865025320891_);fill:#9B9B9B;" points="
					671.073,241.893 714.286,480.264 713.471,480.264 670.258,241.893 				"/>
				<polygon style="clip-path:url(#SVGID_00000077320056643582620600000017510997865025320891_);fill:#9A9A9A;" points="
					671.889,241.893 715.102,480.264 714.286,480.264 671.073,241.893 				"/>
				<polygon style="clip-path:url(#SVGID_00000077320056643582620600000017510997865025320891_);fill:#999999;" points="
					672.704,241.893 715.917,480.264 715.102,480.264 671.889,241.893 				"/>
				<polygon style="clip-path:url(#SVGID_00000077320056643582620600000017510997865025320891_);fill:#989898;" points="
					673.519,241.893 716.732,480.264 715.917,480.264 672.704,241.893 				"/>
				<polygon style="clip-path:url(#SVGID_00000077320056643582620600000017510997865025320891_);fill:#979797;" points="
					674.334,241.893 717.547,480.264 716.732,480.264 673.519,241.893 				"/>
				<polygon style="clip-path:url(#SVGID_00000077320056643582620600000017510997865025320891_);fill:#969696;" points="
					675.149,241.893 718.362,480.264 717.547,480.264 674.334,241.893 				"/>
				<polygon style="clip-path:url(#SVGID_00000077320056643582620600000017510997865025320891_);fill:#959595;" points="
					675.964,241.893 719.177,480.264 718.362,480.264 675.149,241.893 				"/>
				<polygon style="clip-path:url(#SVGID_00000077320056643582620600000017510997865025320891_);fill:#949494;" points="
					676.78,241.893 719.992,480.264 719.177,480.264 675.964,241.893 				"/>
				<polygon style="clip-path:url(#SVGID_00000077320056643582620600000017510997865025320891_);fill:#939393;" points="
					677.595,241.893 720.808,480.264 719.992,480.264 676.78,241.893 				"/>
				<polygon style="clip-path:url(#SVGID_00000077320056643582620600000017510997865025320891_);fill:#929292;" points="
					678.41,241.893 721.623,480.264 720.808,480.264 677.595,241.893 				"/>
				<polygon style="clip-path:url(#SVGID_00000077320056643582620600000017510997865025320891_);fill:#919191;" points="
					679.225,241.893 722.438,480.264 721.623,480.264 678.41,241.893 				"/>
				<polygon style="clip-path:url(#SVGID_00000077320056643582620600000017510997865025320891_);fill:#909090;" points="
					680.04,241.893 723.253,480.264 722.438,480.264 679.225,241.893 				"/>
				<polygon style="clip-path:url(#SVGID_00000077320056643582620600000017510997865025320891_);fill:#8F8F8F;" points="
					680.855,241.893 724.068,480.264 723.253,480.264 680.04,241.893 				"/>
				<polygon style="clip-path:url(#SVGID_00000077320056643582620600000017510997865025320891_);fill:#8E8E8E;" points="
					681.67,241.893 724.883,480.264 724.068,480.264 680.855,241.893 				"/>
				<polygon style="clip-path:url(#SVGID_00000077320056643582620600000017510997865025320891_);fill:#8D8D8D;" points="
					682.486,241.893 725.699,480.264 724.883,480.264 681.67,241.893 				"/>
				<polygon style="clip-path:url(#SVGID_00000077320056643582620600000017510997865025320891_);fill:#8C8C8C;" points="
					683.301,241.893 726.514,480.264 725.699,480.264 682.486,241.893 				"/>
				<polygon style="clip-path:url(#SVGID_00000077320056643582620600000017510997865025320891_);fill:#8B8B8B;" points="
					684.116,241.893 727.329,480.264 726.514,480.264 683.301,241.893 				"/>
				<polygon style="clip-path:url(#SVGID_00000077320056643582620600000017510997865025320891_);fill:#8A8A8A;" points="
					684.931,241.893 728.144,480.264 727.329,480.264 684.116,241.893 				"/>
				<polygon style="clip-path:url(#SVGID_00000077320056643582620600000017510997865025320891_);fill:#898989;" points="
					685.746,241.893 728.959,480.264 728.144,480.264 684.931,241.893 				"/>
				<polygon style="clip-path:url(#SVGID_00000077320056643582620600000017510997865025320891_);fill:#888888;" points="
					686.561,241.893 729.774,480.264 728.959,480.264 685.746,241.893 				"/>
				<polygon style="clip-path:url(#SVGID_00000077320056643582620600000017510997865025320891_);fill:#878787;" points="
					687.377,241.893 730.589,480.264 729.774,480.264 686.561,241.893 				"/>
				<polygon style="clip-path:url(#SVGID_00000077320056643582620600000017510997865025320891_);fill:#868686;" points="
					688.192,241.893 731.405,480.264 730.589,480.264 687.377,241.893 				"/>
				<polygon style="clip-path:url(#SVGID_00000077320056643582620600000017510997865025320891_);fill:#858585;" points="
					689.007,241.893 732.22,480.264 731.405,480.264 688.192,241.893 				"/>
				<polygon style="clip-path:url(#SVGID_00000077320056643582620600000017510997865025320891_);fill:#848484;" points="
					689.822,241.893 733.035,480.264 732.22,480.264 689.007,241.893 				"/>
				<polygon style="clip-path:url(#SVGID_00000077320056643582620600000017510997865025320891_);fill:#838383;" points="
					690.637,241.893 733.85,480.264 733.035,480.264 689.822,241.893 				"/>
				<polygon style="clip-path:url(#SVGID_00000077320056643582620600000017510997865025320891_);fill:#828282;" points="
					691.452,241.893 734.665,480.264 733.85,480.264 690.637,241.893 				"/>
				<polygon style="clip-path:url(#SVGID_00000077320056643582620600000017510997865025320891_);fill:#818181;" points="
					692.268,241.893 735.48,480.264 734.665,480.264 691.452,241.893 				"/>
				<polygon style="clip-path:url(#SVGID_00000077320056643582620600000017510997865025320891_);fill:#808080;" points="
					693.083,241.893 736.296,480.264 735.48,480.264 692.268,241.893 				"/>
				<polygon style="clip-path:url(#SVGID_00000077320056643582620600000017510997865025320891_);fill:#7F7F7F;" points="
					693.898,241.893 737.111,480.264 736.296,480.264 693.083,241.893 				"/>
				<polygon style="clip-path:url(#SVGID_00000077320056643582620600000017510997865025320891_);fill:#7E7E7E;" points="
					694.713,241.893 737.926,480.264 737.111,480.264 693.898,241.893 				"/>
				<polygon style="clip-path:url(#SVGID_00000077320056643582620600000017510997865025320891_);fill:#7D7D7D;" points="
					695.528,241.893 738.741,480.264 737.926,480.264 694.713,241.893 				"/>
				<polygon style="clip-path:url(#SVGID_00000077320056643582620600000017510997865025320891_);fill:#7C7C7C;" points="
					696.343,241.893 739.556,480.264 738.741,480.264 695.528,241.893 				"/>
				<polygon style="clip-path:url(#SVGID_00000077320056643582620600000017510997865025320891_);fill:#7B7B7B;" points="
					697.158,241.893 740.371,480.264 739.556,480.264 696.343,241.893 				"/>
				<polygon style="clip-path:url(#SVGID_00000077320056643582620600000017510997865025320891_);fill:#7A7A7A;" points="
					697.974,241.893 741.187,480.264 740.371,480.264 697.158,241.893 				"/>
				<polygon style="clip-path:url(#SVGID_00000077320056643582620600000017510997865025320891_);fill:#797979;" points="
					698.789,241.893 742.002,480.264 741.187,480.264 697.974,241.893 				"/>
				<polygon style="clip-path:url(#SVGID_00000077320056643582620600000017510997865025320891_);fill:#787878;" points="
					699.604,241.893 742.817,480.264 742.002,480.264 698.789,241.893 				"/>
				<polygon style="clip-path:url(#SVGID_00000077320056643582620600000017510997865025320891_);fill:#777777;" points="
					700.419,241.893 743.632,480.264 742.817,480.264 699.604,241.893 				"/>
				<polygon style="clip-path:url(#SVGID_00000077320056643582620600000017510997865025320891_);fill:#767676;" points="
					701.234,241.893 744.447,480.264 743.632,480.264 700.419,241.893 				"/>
				<polygon style="clip-path:url(#SVGID_00000077320056643582620600000017510997865025320891_);fill:#757575;" points="
					702.049,241.893 745.262,480.264 744.447,480.264 701.234,241.893 				"/>
				<polygon style="clip-path:url(#SVGID_00000077320056643582620600000017510997865025320891_);fill:#747474;" points="
					702.865,241.893 746.077,480.264 745.262,480.264 702.049,241.893 				"/>
				<polygon style="clip-path:url(#SVGID_00000077320056643582620600000017510997865025320891_);fill:#737373;" points="
					703.68,241.893 746.893,480.264 746.077,480.264 702.865,241.893 				"/>
				<polygon style="clip-path:url(#SVGID_00000077320056643582620600000017510997865025320891_);fill:#727272;" points="
					704.495,241.893 747.708,480.264 746.893,480.264 703.68,241.893 				"/>
				<polygon style="clip-path:url(#SVGID_00000077320056643582620600000017510997865025320891_);fill:#717171;" points="
					705.31,241.893 748.523,480.264 747.708,480.264 704.495,241.893 				"/>
				<polygon style="clip-path:url(#SVGID_00000077320056643582620600000017510997865025320891_);fill:#707070;" points="
					706.125,241.893 749.338,480.264 748.523,480.264 705.31,241.893 				"/>
				<polygon style="clip-path:url(#SVGID_00000077320056643582620600000017510997865025320891_);fill:#6F6F6F;" points="
					706.94,241.893 750.153,480.264 749.338,480.264 706.125,241.893 				"/>
				<polygon style="clip-path:url(#SVGID_00000077320056643582620600000017510997865025320891_);fill:#6E6E6E;" points="
					707.755,241.893 750.968,480.264 750.153,480.264 706.94,241.893 				"/>
				<polygon style="clip-path:url(#SVGID_00000077320056643582620600000017510997865025320891_);fill:#6D6D6D;" points="
					708.57,241.893 751.784,480.264 750.968,480.264 707.755,241.893 				"/>
				<polygon style="clip-path:url(#SVGID_00000077320056643582620600000017510997865025320891_);fill:#6C6C6C;" points="
					709.386,241.893 752.599,480.264 751.784,480.264 708.57,241.893 				"/>
				<polygon style="clip-path:url(#SVGID_00000077320056643582620600000017510997865025320891_);fill:#6B6B6B;" points="
					710.201,241.893 753.414,480.264 752.599,480.264 709.386,241.893 				"/>
				<polygon style="clip-path:url(#SVGID_00000077320056643582620600000017510997865025320891_);fill:#6A6A6A;" points="
					711.016,241.893 754.229,480.264 753.414,480.264 710.201,241.893 				"/>
				<polygon style="clip-path:url(#SVGID_00000077320056643582620600000017510997865025320891_);fill:#696969;" points="
					711.831,241.893 755.044,480.264 754.229,480.264 711.016,241.893 				"/>
				<polygon style="clip-path:url(#SVGID_00000077320056643582620600000017510997865025320891_);fill:#686868;" points="
					712.646,241.893 755.859,480.264 755.044,480.264 711.831,241.893 				"/>
				<polygon style="clip-path:url(#SVGID_00000077320056643582620600000017510997865025320891_);fill:#676767;" points="
					713.461,241.893 756.674,480.264 755.859,480.264 712.646,241.893 				"/>
				<polygon style="clip-path:url(#SVGID_00000077320056643582620600000017510997865025320891_);fill:#666666;" points="
					714.277,241.893 757.49,480.264 756.674,480.264 713.461,241.893 				"/>
				<polygon style="clip-path:url(#SVGID_00000077320056643582620600000017510997865025320891_);fill:#656565;" points="
					715.092,241.893 758.305,480.264 757.49,480.264 714.277,241.893 				"/>
				<polygon style="clip-path:url(#SVGID_00000077320056643582620600000017510997865025320891_);fill:#646464;" points="
					715.907,241.893 759.12,480.264 758.305,480.264 715.092,241.893 				"/>
				<polygon style="clip-path:url(#SVGID_00000077320056643582620600000017510997865025320891_);fill:#636363;" points="
					716.722,241.893 759.935,480.264 759.12,480.264 715.907,241.893 				"/>
				<polygon style="clip-path:url(#SVGID_00000077320056643582620600000017510997865025320891_);fill:#626262;" points="
					717.537,241.893 760.75,480.264 759.935,480.264 716.722,241.893 				"/>
				<polygon style="clip-path:url(#SVGID_00000077320056643582620600000017510997865025320891_);fill:#616161;" points="
					718.352,241.893 761.565,480.264 760.75,480.264 717.537,241.893 				"/>
				<polygon style="clip-path:url(#SVGID_00000077320056643582620600000017510997865025320891_);fill:#606060;" points="
					719.167,241.893 762.38,480.264 761.565,480.264 718.352,241.893 				"/>
				<polygon style="clip-path:url(#SVGID_00000077320056643582620600000017510997865025320891_);fill:#5F5F5F;" points="
					719.983,241.893 763.196,480.264 762.38,480.264 719.167,241.893 				"/>
				<polygon style="clip-path:url(#SVGID_00000077320056643582620600000017510997865025320891_);fill:#5E5E5E;" points="
					720.798,241.893 764.011,480.264 763.196,480.264 719.983,241.893 				"/>
				<polygon style="clip-path:url(#SVGID_00000077320056643582620600000017510997865025320891_);fill:#5D5D5D;" points="
					721.613,241.893 764.826,480.264 764.011,480.264 720.798,241.893 				"/>
				<polygon style="clip-path:url(#SVGID_00000077320056643582620600000017510997865025320891_);fill:#5C5C5C;" points="
					722.428,241.893 765.641,480.264 764.826,480.264 721.613,241.893 				"/>
				<polygon style="clip-path:url(#SVGID_00000077320056643582620600000017510997865025320891_);fill:#5B5B5B;" points="
					723.243,241.893 766.456,480.264 765.641,480.264 722.428,241.893 				"/>
				<polygon style="clip-path:url(#SVGID_00000077320056643582620600000017510997865025320891_);fill:#5A5A5A;" points="
					724.058,241.893 767.271,480.264 766.456,480.264 723.243,241.893 				"/>
				<polygon style="clip-path:url(#SVGID_00000077320056643582620600000017510997865025320891_);fill:#595959;" points="
					724.874,241.893 768.087,480.264 767.271,480.264 724.058,241.893 				"/>
				<polygon style="clip-path:url(#SVGID_00000077320056643582620600000017510997865025320891_);fill:#575757;" points="
					725.689,241.893 768.902,480.264 768.087,480.264 724.874,241.893 				"/>
				<polygon style="clip-path:url(#SVGID_00000077320056643582620600000017510997865025320891_);fill:#565656;" points="
					726.504,241.893 769.717,480.264 768.902,480.264 725.689,241.893 				"/>
				<polygon style="clip-path:url(#SVGID_00000077320056643582620600000017510997865025320891_);fill:#555555;" points="
					727.319,241.893 770.532,480.264 769.717,480.264 726.504,241.893 				"/>
				<polygon style="clip-path:url(#SVGID_00000077320056643582620600000017510997865025320891_);fill:#545454;" points="
					728.134,241.893 771.347,480.264 770.532,480.264 727.319,241.893 				"/>
				<polygon style="clip-path:url(#SVGID_00000077320056643582620600000017510997865025320891_);fill:#535353;" points="
					728.949,241.893 772.162,480.264 771.347,480.264 728.134,241.893 				"/>
				<polygon style="clip-path:url(#SVGID_00000077320056643582620600000017510997865025320891_);fill:#525252;" points="
					729.765,241.893 772.977,480.264 772.162,480.264 728.949,241.893 				"/>
				<polygon style="clip-path:url(#SVGID_00000077320056643582620600000017510997865025320891_);fill:#515151;" points="
					730.58,241.893 773.793,480.264 772.977,480.264 729.765,241.893 				"/>
				<polygon style="clip-path:url(#SVGID_00000077320056643582620600000017510997865025320891_);fill:#505050;" points="
					731.395,241.893 774.608,480.264 773.793,480.264 730.58,241.893 				"/>
				<polygon style="clip-path:url(#SVGID_00000077320056643582620600000017510997865025320891_);fill:#4F4F4F;" points="
					732.21,241.893 775.423,480.264 774.608,480.264 731.395,241.893 				"/>
				<polygon style="clip-path:url(#SVGID_00000077320056643582620600000017510997865025320891_);fill:#4E4E4E;" points="
					733.025,241.893 776.238,480.264 775.423,480.264 732.21,241.893 				"/>
				<polygon style="clip-path:url(#SVGID_00000077320056643582620600000017510997865025320891_);fill:#4D4D4D;" points="
					733.84,241.893 777.053,480.264 776.238,480.264 733.025,241.893 				"/>
				<polygon style="clip-path:url(#SVGID_00000077320056643582620600000017510997865025320891_);fill:#4C4C4C;" points="
					734.656,241.893 777.868,480.264 777.053,480.264 733.84,241.893 				"/>
				<polygon style="clip-path:url(#SVGID_00000077320056643582620600000017510997865025320891_);fill:#4B4B4B;" points="
					735.471,241.893 778.683,480.264 777.868,480.264 734.656,241.893 				"/>
				<polygon style="clip-path:url(#SVGID_00000077320056643582620600000017510997865025320891_);fill:#4A4A4A;" points="
					736.286,241.893 779.499,480.264 778.683,480.264 735.471,241.893 				"/>
				<polygon style="clip-path:url(#SVGID_00000077320056643582620600000017510997865025320891_);fill:#494949;" points="
					737.101,241.893 780.314,480.264 779.499,480.264 736.286,241.893 				"/>
				<polygon style="clip-path:url(#SVGID_00000077320056643582620600000017510997865025320891_);fill:#484848;" points="
					737.916,241.893 781.129,480.264 780.314,480.264 737.101,241.893 				"/>
				<polygon style="clip-path:url(#SVGID_00000077320056643582620600000017510997865025320891_);fill:#474747;" points="
					738.731,241.893 781.944,480.264 781.129,480.264 737.916,241.893 				"/>
				<polygon style="clip-path:url(#SVGID_00000077320056643582620600000017510997865025320891_);fill:#464646;" points="
					739.546,241.893 782.759,480.264 781.944,480.264 738.731,241.893 				"/>
				<polygon style="clip-path:url(#SVGID_00000077320056643582620600000017510997865025320891_);fill:#454545;" points="
					740.362,241.893 783.575,480.264 782.759,480.264 739.546,241.893 				"/>
				<polygon style="clip-path:url(#SVGID_00000077320056643582620600000017510997865025320891_);fill:#444444;" points="
					741.177,241.893 784.39,480.264 783.575,480.264 740.362,241.893 				"/>
				<polygon style="clip-path:url(#SVGID_00000077320056643582620600000017510997865025320891_);fill:#434343;" points="
					741.992,241.893 785.205,480.264 784.39,480.264 741.177,241.893 				"/>
				<polygon style="clip-path:url(#SVGID_00000077320056643582620600000017510997865025320891_);fill:#424242;" points="
					742.807,241.893 786.02,480.264 785.205,480.264 741.992,241.893 				"/>
				<polygon style="clip-path:url(#SVGID_00000077320056643582620600000017510997865025320891_);fill:#414141;" points="
					743.622,241.893 786.835,480.264 786.02,480.264 742.807,241.893 				"/>
				<polygon style="clip-path:url(#SVGID_00000077320056643582620600000017510997865025320891_);fill:#404040;" points="
					744.437,241.893 787.65,480.264 786.835,480.264 743.622,241.893 				"/>
				<polygon style="clip-path:url(#SVGID_00000077320056643582620600000017510997865025320891_);fill:#3F3F3F;" points="
					745.252,241.893 788.465,480.264 787.65,480.264 744.437,241.893 				"/>
				<polygon style="clip-path:url(#SVGID_00000077320056643582620600000017510997865025320891_);fill:#3E3E3E;" points="
					746.068,241.893 789.281,480.264 788.465,480.264 745.252,241.893 				"/>
				<polygon style="clip-path:url(#SVGID_00000077320056643582620600000017510997865025320891_);fill:#3D3D3D;" points="
					746.883,241.893 790.096,480.264 789.281,480.264 746.068,241.893 				"/>
				<polygon style="clip-path:url(#SVGID_00000077320056643582620600000017510997865025320891_);fill:#3C3C3C;" points="
					747.698,241.893 790.911,480.264 790.096,480.264 746.883,241.893 				"/>
				<polygon style="clip-path:url(#SVGID_00000077320056643582620600000017510997865025320891_);fill:#3B3B3B;" points="
					748.513,241.893 791.726,480.264 790.911,480.264 747.698,241.893 				"/>
				<polygon style="clip-path:url(#SVGID_00000077320056643582620600000017510997865025320891_);fill:#3A3A3A;" points="
					749.328,241.893 792.541,480.264 791.726,480.264 748.513,241.893 				"/>
				<polygon style="clip-path:url(#SVGID_00000077320056643582620600000017510997865025320891_);fill:#393939;" points="
					750.143,241.893 793.356,480.264 792.541,480.264 749.328,241.893 				"/>
				<polygon style="clip-path:url(#SVGID_00000077320056643582620600000017510997865025320891_);fill:#383838;" points="
					750.958,241.893 794.172,480.264 793.356,480.264 750.143,241.893 				"/>
				<polygon style="clip-path:url(#SVGID_00000077320056643582620600000017510997865025320891_);fill:#373737;" points="
					751.774,241.893 794.987,480.264 794.172,480.264 750.958,241.893 				"/>
				<polygon style="clip-path:url(#SVGID_00000077320056643582620600000017510997865025320891_);fill:#363636;" points="
					752.589,241.893 795.802,480.264 794.987,480.264 751.774,241.893 				"/>
				<polygon style="clip-path:url(#SVGID_00000077320056643582620600000017510997865025320891_);fill:#353535;" points="
					753.404,241.893 796.617,480.264 795.802,480.264 752.589,241.893 				"/>
				<polygon style="clip-path:url(#SVGID_00000077320056643582620600000017510997865025320891_);fill:#343434;" points="
					754.219,241.893 797.432,480.264 796.617,480.264 753.404,241.893 				"/>
				<polygon style="clip-path:url(#SVGID_00000077320056643582620600000017510997865025320891_);fill:#333333;" points="
					755.034,241.893 798.247,480.264 797.432,480.264 754.219,241.893 				"/>
				<polygon style="clip-path:url(#SVGID_00000077320056643582620600000017510997865025320891_);fill:#323232;" points="
					755.849,241.893 799.062,480.264 798.247,480.264 755.034,241.893 				"/>
				<polygon style="clip-path:url(#SVGID_00000077320056643582620600000017510997865025320891_);fill:#313131;" points="
					756.665,241.893 799.878,480.264 799.062,480.264 755.849,241.893 				"/>
				<polygon style="clip-path:url(#SVGID_00000077320056643582620600000017510997865025320891_);fill:#2F2F2F;" points="
					757.48,241.893 800.693,480.264 799.878,480.264 756.665,241.893 				"/>
				<polygon style="clip-path:url(#SVGID_00000077320056643582620600000017510997865025320891_);fill:#2E2E2E;" points="
					758.295,241.893 801.508,480.264 800.693,480.264 757.48,241.893 				"/>
				<polygon style="clip-path:url(#SVGID_00000077320056643582620600000017510997865025320891_);fill:#2D2D2D;" points="
					759.11,241.893 802.323,480.264 801.508,480.264 758.295,241.893 				"/>
				<polygon style="clip-path:url(#SVGID_00000077320056643582620600000017510997865025320891_);fill:#2C2C2C;" points="
					759.925,241.893 803.138,480.264 802.323,480.264 759.11,241.893 				"/>
				<polygon style="clip-path:url(#SVGID_00000077320056643582620600000017510997865025320891_);fill:#2B2B2B;" points="
					760.74,241.893 803.953,480.264 803.138,480.264 759.925,241.893 				"/>
				<polygon style="clip-path:url(#SVGID_00000077320056643582620600000017510997865025320891_);fill:#2A2A2A;" points="
					761.555,241.893 804.768,480.264 803.953,480.264 760.74,241.893 				"/>
				<polygon style="clip-path:url(#SVGID_00000077320056643582620600000017510997865025320891_);fill:#292929;" points="
					762.371,241.893 805.584,480.264 804.768,480.264 761.555,241.893 				"/>
				<polygon style="clip-path:url(#SVGID_00000077320056643582620600000017510997865025320891_);fill:#282828;" points="
					763.186,241.893 806.399,480.264 805.584,480.264 762.371,241.893 				"/>
				<polygon style="clip-path:url(#SVGID_00000077320056643582620600000017510997865025320891_);fill:#272727;" points="
					764.001,241.893 807.214,480.264 806.399,480.264 763.186,241.893 				"/>
				<polygon style="clip-path:url(#SVGID_00000077320056643582620600000017510997865025320891_);fill:#262626;" points="
					764.816,241.893 808.029,480.264 807.214,480.264 764.001,241.893 				"/>
				<polygon style="clip-path:url(#SVGID_00000077320056643582620600000017510997865025320891_);fill:#252525;" points="
					765.631,241.893 808.844,480.264 808.029,480.264 764.816,241.893 				"/>
				<polygon style="clip-path:url(#SVGID_00000077320056643582620600000017510997865025320891_);fill:#242424;" points="
					766.446,241.893 809.659,480.264 808.844,480.264 765.631,241.893 				"/>
				<polygon style="clip-path:url(#SVGID_00000077320056643582620600000017510997865025320891_);fill:#232323;" points="
					767.261,241.893 810.475,480.264 809.659,480.264 766.446,241.893 				"/>
				<polygon style="clip-path:url(#SVGID_00000077320056643582620600000017510997865025320891_);fill:#222222;" points="
					768.077,241.893 811.29,480.264 810.475,480.264 767.261,241.893 				"/>
				<polygon style="clip-path:url(#SVGID_00000077320056643582620600000017510997865025320891_);fill:#212121;" points="
					768.892,241.893 812.105,480.264 811.29,480.264 768.077,241.893 				"/>
				<polygon style="clip-path:url(#SVGID_00000077320056643582620600000017510997865025320891_);fill:#202020;" points="
					769.707,241.893 812.92,480.264 812.105,480.264 768.892,241.893 				"/>
				<polygon style="clip-path:url(#SVGID_00000077320056643582620600000017510997865025320891_);fill:#1F1F1F;" points="
					770.522,241.893 813.735,480.264 812.92,480.264 769.707,241.893 				"/>
				<polygon style="clip-path:url(#SVGID_00000077320056643582620600000017510997865025320891_);fill:#1E1E1E;" points="
					771.337,241.893 814.55,480.264 813.735,480.264 770.522,241.893 				"/>
				<polygon style="clip-path:url(#SVGID_00000077320056643582620600000017510997865025320891_);fill:#1D1D1D;" points="
					772.153,241.893 815.365,480.264 814.55,480.264 771.337,241.893 				"/>
				<polygon style="clip-path:url(#SVGID_00000077320056643582620600000017510997865025320891_);fill:#1C1C1C;" points="
					772.968,241.893 816.181,480.264 815.365,480.264 772.153,241.893 				"/>
				<polygon style="clip-path:url(#SVGID_00000077320056643582620600000017510997865025320891_);fill:#1B1B1B;" points="
					773.783,241.893 816.996,480.264 816.181,480.264 772.968,241.893 				"/>
				<polygon style="clip-path:url(#SVGID_00000077320056643582620600000017510997865025320891_);fill:#1A1A1A;" points="
					774.598,241.893 817.811,480.264 816.996,480.264 773.783,241.893 				"/>
				<polygon style="clip-path:url(#SVGID_00000077320056643582620600000017510997865025320891_);fill:#191919;" points="
					775.413,241.893 818.626,480.264 817.811,480.264 774.598,241.893 				"/>
				<polygon style="clip-path:url(#SVGID_00000077320056643582620600000017510997865025320891_);fill:#181818;" points="
					776.228,241.893 819.441,480.264 818.626,480.264 775.413,241.893 				"/>
				<polygon style="clip-path:url(#SVGID_00000077320056643582620600000017510997865025320891_);fill:#171717;" points="
					777.044,241.893 820.256,480.264 819.441,480.264 776.228,241.893 				"/>
				<polygon style="clip-path:url(#SVGID_00000077320056643582620600000017510997865025320891_);fill:#161616;" points="
					777.859,241.893 821.051,480.153 820.441,480.264 820.256,480.264 777.044,241.893 				"/>
				<polygon style="clip-path:url(#SVGID_00000077320056643582620600000017510997865025320891_);fill:#151515;" points="
					778.674,241.893 821.841,480.01 821.051,480.153 777.859,241.893 				"/>
				<polygon style="clip-path:url(#SVGID_00000077320056643582620600000017510997865025320891_);fill:#141414;" points="
					779.489,241.893 822.63,479.867 821.841,480.01 778.674,241.893 				"/>
				<polygon style="clip-path:url(#SVGID_00000077320056643582620600000017510997865025320891_);fill:#131313;" points="
					780.304,241.893 823.419,479.724 822.63,479.867 779.489,241.893 				"/>
				<polygon style="clip-path:url(#SVGID_00000077320056643582620600000017510997865025320891_);fill:#121212;" points="
					781.119,241.893 824.208,479.581 823.419,479.724 780.304,241.893 				"/>
				<polygon style="clip-path:url(#SVGID_00000077320056643582620600000017510997865025320891_);fill:#111111;" points="
					781.934,241.893 824.998,479.438 824.208,479.581 781.119,241.893 				"/>
				<polygon style="clip-path:url(#SVGID_00000077320056643582620600000017510997865025320891_);fill:#101010;" points="
					782.75,241.893 825.787,479.295 824.998,479.438 781.934,241.893 				"/>
				<polygon style="clip-path:url(#SVGID_00000077320056643582620600000017510997865025320891_);fill:#0E0E0E;" points="
					783.565,241.893 826.576,479.152 825.787,479.295 782.75,241.893 				"/>
				<polygon style="clip-path:url(#SVGID_00000077320056643582620600000017510997865025320891_);fill:#0D0D0D;" points="
					784.38,241.893 827.365,479.009 826.576,479.152 783.565,241.893 				"/>
				<polygon style="clip-path:url(#SVGID_00000077320056643582620600000017510997865025320891_);fill:#0C0C0C;" points="
					785.195,241.893 828.154,478.866 827.365,479.009 784.38,241.893 				"/>
				<polygon style="clip-path:url(#SVGID_00000077320056643582620600000017510997865025320891_);fill:#0B0B0B;" points="
					786.01,241.893 828.944,478.723 828.154,478.866 785.195,241.893 				"/>
				<polygon style="clip-path:url(#SVGID_00000077320056643582620600000017510997865025320891_);fill:#0A0A0A;" points="
					786.825,241.893 829.733,478.579 828.944,478.723 786.01,241.893 				"/>
				<polygon style="clip-path:url(#SVGID_00000077320056643582620600000017510997865025320891_);fill:#090909;" points="
					787.64,241.893 830.522,478.436 829.733,478.579 786.825,241.893 				"/>
				<polygon style="clip-path:url(#SVGID_00000077320056643582620600000017510997865025320891_);fill:#080808;" points="
					788.456,241.893 831.311,478.293 830.522,478.436 787.64,241.893 				"/>
				<polygon style="clip-path:url(#SVGID_00000077320056643582620600000017510997865025320891_);fill:#070707;" points="
					789.271,241.893 832.101,478.15 831.311,478.293 788.456,241.893 				"/>
				<polygon style="clip-path:url(#SVGID_00000077320056643582620600000017510997865025320891_);fill:#060606;" points="
					790.086,241.893 832.89,478.007 832.101,478.15 789.271,241.893 				"/>
				<polygon style="clip-path:url(#SVGID_00000077320056643582620600000017510997865025320891_);fill:#050505;" points="
					790.901,241.893 833.679,477.864 832.89,478.007 790.086,241.893 				"/>
				<polygon style="clip-path:url(#SVGID_00000077320056643582620600000017510997865025320891_);fill:#040404;" points="
					791.716,241.893 834.468,477.721 833.679,477.864 790.901,241.893 				"/>
				<polygon style="clip-path:url(#SVGID_00000077320056643582620600000017510997865025320891_);fill:#030303;" points="
					792.531,241.893 835.257,477.578 834.468,477.721 791.716,241.893 				"/>
				<polygon style="clip-path:url(#SVGID_00000077320056643582620600000017510997865025320891_);fill:#020202;" points="
					793.346,241.893 836.047,477.435 835.257,477.578 792.531,241.893 				"/>
				<polygon style="clip-path:url(#SVGID_00000077320056643582620600000017510997865025320891_);fill:#010101;" points="
					794.162,241.893 836.836,477.292 836.047,477.435 793.346,241.893 				"/>
				<polygon style="clip-path:url(#SVGID_00000077320056643582620600000017510997865025320891_);" points="794.977,241.893 
					837.625,477.149 836.836,477.292 794.162,241.893 				"/>
				<polygon style="clip-path:url(#SVGID_00000077320056643582620600000017510997865025320891_);" points="857.47,473.551 
					837.625,477.149 794.977,241.893 857.47,241.893 				"/>
			</g>
		</g>
		<g>
			<g>
				<path style="fill:#FFFFFF;" d="M319.899,251.088c-3.268-2.06-5.787-5.043-7.558-8.949c-1.772-3.907-2.657-8.534-2.657-13.885
					c0-5.35,0.885-9.954,2.657-13.814c1.77-3.859,4.29-6.818,7.558-8.878c3.266-2.06,7.154-3.09,11.664-3.09
					c6.902,0,12.468,2.273,16.703,6.818l-1.45,2.486c-2.44-2.273-4.843-3.906-7.212-4.901c-2.37-0.994-5.073-1.492-8.109-1.492
					c-5.936,0-10.55,2.001-13.838,6.002c-3.29,4.002-4.935,9.624-4.935,16.868c0,7.292,1.633,12.951,4.9,16.975
					c3.266,4.025,7.891,6.037,13.873,6.037c3.036,0,5.739-0.497,8.109-1.492c2.37-0.994,4.773-2.628,7.212-4.901l1.45,2.486
					c-4.234,4.546-9.801,6.818-16.703,6.818C327.053,254.178,323.165,253.148,319.899,251.088z"/>
			</g>
			<g>
				<path style="fill:#FFFFFF;" d="M366.245,251.053c-3.244-2.083-5.728-5.066-7.455-8.949c-1.725-3.882-2.588-8.475-2.588-13.779
					c0-5.303,0.863-9.896,2.588-13.779c1.726-3.882,4.199-6.865,7.42-8.949c3.22-2.083,7.04-3.125,11.457-3.125
					c4.417,0,8.247,1.042,11.491,3.125c3.243,2.084,5.728,5.055,7.454,8.914c1.725,3.86,2.589,8.441,2.589,13.743
					c0,5.304-0.863,9.908-2.589,13.814c-1.725,3.906-4.21,6.902-7.454,8.985c-3.244,2.084-7.075,3.125-11.491,3.125
					C373.295,254.178,369.488,253.137,366.245,251.053z M391.195,245.229c3.22-4.024,4.832-9.683,4.832-16.975
					c0-7.291-1.6-12.927-4.797-16.904c-3.198-3.977-7.719-5.966-13.562-5.966c-5.844,0-10.365,2.001-13.563,6.002
					c-3.198,4.002-4.797,9.624-4.797,16.868c0,7.245,1.61,12.891,4.832,16.939c3.22,4.048,7.73,6.073,13.528,6.073
					C383.464,251.266,387.974,249.254,391.195,245.229z"/>
			</g>
			<g>
				<path style="fill:#FFFFFF;" d="M445.512,203.04h2.692v50.57h-2.347l-32.577-45.527v45.527h-2.691v-50.57h2.415l32.507,45.385
					V203.04z"/>
			</g>
			<g>
				<path style="fill:#FFFFFF;" d="M473.809,253.61v-47.871h-18.083v-2.699h39.065v2.699h-18.152v47.871H473.809z"/>
			</g>
			<g>
				<path style="fill:#FFFFFF;" d="M502.313,253.61v-50.57h29.54v2.77h-26.641v20.739h25.261v2.841h-25.261v21.449h26.641v2.77
					H502.313z"/>
			</g>
			<g>
				<path style="fill:#FFFFFF;" d="M577.404,203.04h2.692v50.57h-2.347l-32.577-45.527v45.527h-2.691v-50.57h2.416l32.507,45.385
					V203.04z"/>
			</g>
			<g>
				<path style="fill:#FFFFFF;" d="M605.702,253.61v-47.871h-18.083v-2.699h39.065v2.699h-18.152v47.871H605.702z"/>
			</g>
		</g>
		<g>
			<g>
				<polygon style="fill:#3B455A;" points="478.076,452.184 502.181,414.873 533.603,452.184 				"/>
			</g>
			<g>
				<polygon style="fill:#3B455A;" points="519.088,452.184 546.851,401.422 574.614,452.184 				"/>
			</g>
			<g>
				
					<ellipse transform="matrix(0.7071 -0.7071 0.7071 0.7071 -130.3135 485.8731)" style="fill:#3B455A;" cx="521.344" cy="400.239" rx="7.752" ry="7.752"/>
			</g>
		</g>
		<g>
			<g>
				<g>
					<polygon style="fill:#D34E4E;" points="632.441,202.465 712.914,422.43 752.233,372.644 812.902,435.517 835.904,413.321 
						858.907,391.125 798.238,328.251 849.395,290.733 					"/>
				</g>
				<g>
					<g>
						<path style="fill:#FFFFFF;" d="M628.16,203.645c9.112,24.906,18.224,49.812,27.335,74.718
							c14.397,39.353,28.795,78.707,43.192,118.061c3.315,9.062,6.631,18.124,9.946,27.186c1.014,2.771,5.157,4.823,7.419,1.959
							c13.106-16.595,26.213-33.191,39.319-49.786c-2.093,0-4.185,0-6.278,0c17.655,18.297,35.31,36.593,52.965,54.89
							c2.568,2.661,5.136,5.322,7.704,7.984c1.686,1.747,4.574,1.644,6.278,0c15.335-14.797,30.67-29.595,46.005-44.392
							c1.747-1.686,1.644-4.574,0-6.278c-17.655-18.297-35.31-36.593-52.965-54.889c-2.568-2.661-5.136-5.323-7.704-7.984
							c-0.299,2.324-0.599,4.648-0.898,6.972c17.052-12.506,34.105-25.012,51.157-37.518c3.246-2.38,2.59-6.628-1.06-8.114
							c-24.565-9.994-49.13-19.989-73.695-29.983c-38.815-15.792-77.63-31.584-116.445-47.376
							c-8.938-3.636-17.876-7.273-26.814-10.909c-5.29-2.152-7.591,6.433-2.36,8.561c24.565,9.994,49.13,19.989,73.695,29.983
							c38.815,15.792,77.63,31.584,116.445,47.376c8.938,3.636,17.876,7.273,26.814,10.909c-0.353-2.704-0.707-5.409-1.06-8.113
							c-17.052,12.506-34.105,25.012-51.157,37.518c-2.302,1.689-3.046,4.747-0.898,6.972c17.655,18.296,35.31,36.593,52.966,54.89
							c2.568,2.661,5.136,5.322,7.704,7.984c0-2.092,0-4.185,0-6.278c-15.335,14.797-30.67,29.595-46.005,44.392
							c2.093,0,4.185,0,6.278,0c-17.655-18.297-35.31-36.593-52.965-54.89c-2.568-2.661-5.136-5.322-7.704-7.984
							c-1.524-1.58-4.805-1.865-6.278,0c-13.107,16.595-26.213,33.191-39.319,49.786c2.473,0.653,4.946,1.306,7.419,1.959
							c-9.112-24.906-18.224-49.812-27.335-74.718c-14.397-39.353-28.795-78.707-43.192-118.061
							c-3.315-9.062-6.631-18.124-9.946-27.186C634.774,195.963,626.191,198.262,628.16,203.645z"/>
					</g>
				</g>
			</g>
		</g>
		<g>
			<g>
				<path style="fill:#B97262;" d="M767.34,390.416c2.385-2.652,4.77-5.303,7.155-7.955c0.738-0.821,2.362-3.514,3.65-2.488
					c0.625,0.497,2.873,1.991,5.035,3.63c2.168,0.626,4.312,1.351,6.53,1.77c5.612,1.06,18.714-3.313,20.873,4.226
					c0.418,1.458,0.839,2.955,0.723,4.467c-0.095,1.237-0.546,2.416-1.045,3.552c-0.389,0.885-0.794,2.382-1.671,2.727
					c-0.92,0.362-3.297-0.386-4.305-0.503c-2.882-0.336-5.763-0.673-8.645-1.009c-2.827-0.33-6.187-0.454-7.956,1.774
					c-0.387,0.487-0.667,1.062-1.117,1.493c-0.507,0.486-1.185,0.745-1.849,0.973c-2.434,0.834-4.996,1.495-7.563,1.742
					c-2.343,0.225-3.38-1.313-5.042-2.733c-1.943-1.66-4.425-1.766-6.378-3.36c-1.102-0.899-1.895-2.315-1.661-3.718
					c0.189-1.135,0.992-2.057,1.762-2.913C766.337,391.53,766.838,390.973,767.34,390.416z"/>
			</g>
			<g>
				<path style="fill:#84BBC1;" d="M871.548,400.231c-5.396,3.423-11.323,5.443-18.55,6.46c-17.855,2.512-36.1,2.223-53.866-0.853
					c-1.152-8.403-0.622-17.034,1.552-25.233c14.788-0.867,29.506-2.915,43.969-6.117c7.086-1.569,13.105-4.148,16.315-11.095
					c7.147-15.467,13.133-31.471,17.889-47.833c1.052-3.617,2.081-7.333,4.252-10.411c3.983-5.645,11.47-8.225,18.312-7.273
					c6.842,0.952,12.982,5.04,17.446,10.312c3.199,3.778,5.702,8.382,5.917,13.328c0.223,5.116-1.987,9.997-4.294,14.569
					c-10.292,20.396-23.541,39.296-39.204,55.927C878.123,395.372,874.94,398.079,871.548,400.231z"/>
			</g>
		</g>
	</g>
</g>
</svg>
